<?xml version="1.0" encoding="UTF-8"?>
<svg width="24px" height="24px" fill="undefined" version="1.1" viewBox="0 -960 960 960" xmlns="http://www.w3.org/2000/svg">
 <g>
  <path d="m371.2-923.5c-92.942 0-177.34 34.586-242.66 99.748h-2e-3v2e-3c-65.338 65.185-100.03 149.58-100.03 242.55 0 92.961 34.653 177.38 99.916 242.69l4e-3 4e-3c65.271 65.309 149.66 100 242.58 100 35.058 0 68.742-4.5979 100.51-14.129 15.919-4.7756 30.973-10.428 45.201-16.951l268.05 268.87 167.78-166.03-269.66-270.69c6.6433-13.94 12.312-28.598 16.955-43.939 9.3386-30.858 13.664-64.175 13.664-99.627 0-92.896-34.594-177.26-99.76-242.54v-2e-3h-2e-3c-65.188-65.295-149.57-99.961-242.54-99.961zm0 101c69.433 0 122.92 22.095 171.06 70.32 48.166 48.252 70.238 101.8 70.238 171.18 0 27.215-3.3412 50.564-9.3359 70.373-6.3474 20.974-14.687 38.386-24.736 52.957l-23.838 34.564 254.88 255.85-24.223 23.971-252.82-253.59-34.443 22.73c-14.299 9.4365-32.652 17.927-55.486 24.777-21.563 6.469-45.213 9.8711-71.488 9.8711-69.354 0-122.88-22.107-171.14-70.395l-4e-3 -4e-3c-48.254-48.296-70.359-101.88-70.359-171.3 0-69.425 22.105-122.9 70.367-171.05 48.289-48.169 101.89-70.25 171.33-70.25zm-0.60938 35c-55.746 0-108.43 20.979-146.96 59.865-38.45 38.805-59.127 91.402-59.127 147.04s20.719 108.23 59.291 146.8c38.572 38.572 91.156 59.291 146.8 59.291s108.24-20.677 147.04-59.127c38.886-38.531 59.865-91.217 59.865-146.96 0-55.746-20.937-108.44-59.701-147.21s-91.463-59.701-147.21-59.701z" fill="#ffead1" style="paint-order:stroke markers fill"/>
  <path d="m785-72-259.21-260q-28.79 19-68.79 31t-86 12q-121.71 0-206.86-85.2-85.14-85.21-85.14-207 0-121.8 85.2-206.8 85.21-85 207-85 121.8 0 206.8 85.14 85 85.15 85 206.86 0 47-11.5 85t-31.5 67l261 262zm-414.41-353q66.59 0 111.5-44.5t44.91-111.09-44.91-111.5-111.5-44.91-111.09 44.91-44.5 111.5 44.5 111.09 111.09 44.5z" fill="#131111" style="paint-order:stroke markers fill"/>
 </g>
</svg>
